<svg xmlns="http://www.w3.org/2000/svg">
  <symbol id="bluesky-icon" viewBox="0 0 16 17">
    <g clip-path="url(#bluesky-clip)"><path fill="#08060d" d="M7.75 7.735c-.693-1.348-2.58-3.86-4.334-5.097-1.68-1.187-2.32-.981-2.74-.79C.188 2.065.1 2.812.1 3.251s.241 3.602.398 4.13c.52 1.744 2.367 2.333 4.07 2.145-2.495.37-4.71 1.278-1.805 4.512 3.196 3.309 4.38-.71 4.987-2.746.608 2.036 1.307 5.91 4.93 2.746 2.72-2.746.747-4.143-1.747-4.512 1.702.189 3.55-.4 4.07-2.145.156-.528.397-3.691.397-4.13s-.088-1.186-.575-1.406c-.42-.19-1.06-.395-2.741.79-1.755 1.24-3.64 3.752-4.334 5.099"/></g>
    <defs><clipPath id="bluesky-clip"><path fill="#fff" d="M.1.85h15.3v15.3H.1z"/></clipPath></defs>
  </symbol>
  <symbol id="discord-icon" viewBox="0 0 20 19">
    <path fill="#08060d" d="M16.224 3.768a14.5 14.5 0 0 0-3.67-1.153c-.158.286-.343.67-.47.976a13.5 13.5 0 0 0-4.067 0c-.128-.306-.317-.69-.476-.976A14.4 14.4 0 0 0 3.868 3.77C1.546 7.28.916 10.703 1.231 14.077a14.7 14.7 0 0 0 4.5 2.306q.545-.748.965-1.587a9.5 9.5 0 0 1-1.518-.74q.191-.14.372-.293c2.927 1.369 6.107 1.369 8.999 0q.183.152.372.294-.723.437-1.52.74.418.838.963 1.588a14.6 14.6 0 0 0 4.504-2.308c.37-3.911-.63-7.302-2.644-10.309m-9.13 8.234c-.878 0-1.599-.82-1.599-1.82 0-.998.705-1.82 1.6-1.82.894 0 1.614.82 1.599 1.82.001 1-.705 1.82-1.6 1.82m5.91 0c-.878 0-1.599-.82-1.599-1.82 0-.998.705-1.82 1.6-1.82.893 0 1.614.82 1.599 1.82 0 1-.706 1.82-1.6 1.82"/>
  </symbol>
  <symbol id="documentation-icon" viewBox="0 0 21 20">
    <path fill="none" stroke="#aa3bff" stroke-linecap="round" stroke-linejoin="round" stroke-width="1.35" d="m15.5 13.333 1.533 1.322c.645.555.967.833.967 1.178s-.322.623-.967 1.179L15.5 18.333m-3.333-5-1.534 1.322c-.644.555-.966.833-.966 1.178s.322.623.966 1.179l1.534 1.321"/>
    <path fill="none" stroke="#aa3bff" stroke-linecap="round" stroke-linejoin="round" stroke-width="1.35" d="M17.167 10.836v-4.32c0-1.41 0-2.117-.224-2.68-.359-.906-1.118-1.621-2.08-1.96-.599-.21-1.349-.21-2.848-.21-2.623 0-3.935 0-4.983.369-1.684.591-3.013 1.842-3.641 3.428C3 6.449 3 7.684 3 10.154v2.122c0 2.558 0 3.838.706 4.726q.306.383.713.671c.76.536 1.79.64 3.581.66"/>
    <path fill="none" stroke="#aa3bff" stroke-linecap="round" stroke-linejoin="round" stroke-width="1.35" d="M3 10a2.78 2.78 0 0 1 2.778-2.778c.555 0 1.209.097 1.748-.047.48-.129.854-.503.982-.982.145-.54.048-1.194.048-1.749a2.78 2.78 0 0 1 2.777-2.777"/>
  </symbol>
  <symbol id="github-icon" viewBox="0 0 19 19">
    <path fill="#08060d" fill-rule="evenodd" d="M9.356 1.85C5.05 1.85 1.57 5.356 1.57 9.694a7.84 7.84 0 0 0 5.324 7.44c.387.079.528-.168.528-.376 0-.182-.013-.805-.013-1.454-2.165.467-2.616-.935-2.616-.935-.349-.91-.864-1.143-.864-1.143-.71-.48.051-.48.051-.48.787.051 1.2.805 1.2.805.695 1.194 1.817.857 2.268.649.064-.507.27-.857.49-1.052-1.728-.182-3.545-.857-3.545-3.87 0-.857.31-1.558.8-2.104-.078-.195-.349-1 .077-2.078 0 0 .657-.208 2.14.805a7.5 7.5 0 0 1 1.946-.26c.657 0 1.328.092 1.946.26 1.483-1.013 2.14-.805 2.14-.805.426 1.078.155 1.883.078 2.078.502.546.799 1.247.799 2.104 0 3.013-1.818 3.675-3.558 3.87.284.247.528.714.528 1.454 0 1.052-.012 1.896-.012 2.156 0 .208.142.455.528.377a7.84 7.84 0 0 0 5.324-7.441c.013-4.338-3.48-7.844-7.773-7.844" clip-rule="evenodd"/>
  </symbol>
  <symbol id="social-icon" viewBox="0 0 20 20">
    <path fill="none" stroke="#aa3bff" stroke-linecap="round" stroke-linejoin="round" stroke-width="1.35" d="M12.5 6.667a4.167 4.167 0 1 0-8.334 0 4.167 4.167 0 0 0 8.334 0"/>
    <path fill="none" stroke="#aa3bff" stroke-linecap="round" stroke-linejoin="round" stroke-width="1.35" d="M2.5 16.667a5.833 5.833 0 0 1 8.75-5.053m3.837.474.513 1.035c.07.144.257.282.414.309l.93.155c.596.1.736.536.307.965l-.723.73a.64.64 0 0 0-.152.531l.207.903c.164.715-.213.991-.84.618l-.872-.52a.63.63 0 0 0-.577 0l-.872.52c-.624.373-1.003.094-.84-.618l.207-.903a.64.64 0 0 0-.152-.532l-.723-.729c-.426-.43-.289-.864.306-.964l.93-.156a.64.64 0 0 0 .412-.31l.513-1.034c.28-.562.735-.562 1.012 0"/>
  </symbol>
  <symbol id="x-icon" viewBox="0 0 19 19">
    <path fill="#08060d" fill-rule="evenodd" d="M1.893 1.98c.052.072 1.245 1.769 2.653 3.77l2.892 4.114c.183.261.333.48.333.486s-.068.089-.152.183l-.522.593-.765.867-3.597 4.087c-.375.426-.734.834-.798.905a1 1 0 0 0-.118.148c0 .01.236.017.664.017h.663l.729-.83c.4-.457.796-.906.879-.999a692 692 0 0 0 1.794-2.038c.034-.037.301-.34.594-.675l.551-.624.345-.392a7 7 0 0 1 .34-.374c.006 0 .93 1.306 2.052 2.903l2.084 2.965.045.063h2.275c1.87 0 2.273-.003 2.266-.021-.008-.02-1.098-1.572-3.894-5.547-2.013-2.862-2.28-3.246-2.273-3.266.008-.019.282-.332 2.085-2.38l2-2.274 1.567-1.782c.022-.028-.016-.03-.65-.03h-.674l-.3.342a871 871 0 0 1-1.782 2.025c-.067.075-.405.458-.75.852a100 100 0 0 1-.803.91c-.148.172-.299.344-.99 1.127-.304.343-.32.358-.345.327-.015-.019-.904-1.282-1.976-2.808L6.365 1.85H1.8zm1.782.91 8.078 11.294c.772 1.08 1.413 1.973 1.425 1.984.016.017.241.02 1.05.017l1.03-.004-2.694-3.766L7.796 5.75 5.722 2.852l-1.039-.004-1.039-.004z" clip-rule="evenodd"/>
  </symbol>
  <!-- Notification provider icons -->
  <symbol id="notif-broadcast-icon" viewBox="0 0 24 24">
    <path fill="currentColor" d="M18 4L7 9H4a1 1 0 00-1 1v4a1 1 0 001 1h3l11 5V4zM7.91 15l.74 2.22A1 1 0 009.58 18l-.74-2.22L7.91 15zM20 7a1 1 0 011 1v8a1 1 0 01-2 0V8a1 1 0 011-1z"/>
  </symbol>
  <symbol id="notif-types-icon" viewBox="0 0 24 24">
    <path fill="currentColor" d="M3 13h2v-2H3v2zm0 4h2v-2H3v2zm0-8h2V7H3v2zm4 4h14v-2H7v2zm0 4h14v-2H7v2zM7 7v2h14V7H7z"/>
  </symbol>
  <symbol id="notif-discord-icon" viewBox="0 0 256 199">
    <path d="M216.856 16.597A208.502 208.502 0 0 0 164.042 0c-2.275 4.113-4.933 9.645-6.766 14.046-19.692-2.961-39.203-2.961-58.533 0-1.832-4.4-4.55-9.933-6.846-14.046a207.809 207.809 0 0 0-52.855 16.638C5.618 67.147-3.443 116.4 1.087 164.956c22.169 16.555 43.653 26.612 64.775 33.193A161.094 161.094 0 0 0 79.735 175.3a136.413 136.413 0 0 1-21.846-10.632 108.636 108.636 0 0 0 5.356-4.237c42.122 19.702 87.89 19.702 129.51 0a131.66 131.66 0 0 0 5.355 4.237 136.07 136.07 0 0 1-21.886 10.653c4.006 8.02 8.638 15.67 13.873 22.848 21.142-6.58 42.646-16.637 64.815-33.213 5.316-56.288-9.08-105.09-38.056-148.36ZM85.474 135.095c-12.645 0-23.015-11.805-23.015-26.18s10.149-26.2 23.015-26.2c12.867 0 23.236 11.804 23.015 26.2.02 14.375-10.148 26.18-23.015 26.18Zm85.051 0c-12.645 0-23.014-11.805-23.014-26.18s10.148-26.2 23.014-26.2c12.867 0 23.236 11.804 23.015 26.2 0 14.375-10.148 26.18-23.015 26.18Z" fill="#5865F2"/>
  </symbol>
  <symbol id="notif-pushover-icon" viewBox="0 0 600 600">
    <ellipse fill="rgb(36,157,241)" transform="matrix(-0.674571,0.73821,-0.73821,-0.674571,556.833239,241.613465)" cx="216.308" cy="152.076" rx="296.855" ry="296.855"/>
    <path fill="rgb(255,255,255)" fill-rule="nonzero" d="M280.949 172.514L355.429 162.714L282.909 326.374C295.649 325.394 308.142 321.067 320.389 313.394C332.642 305.714 343.916 296.077 354.209 284.484C364.496 272.884 373.396 259.981 380.909 245.774C388.422 231.561 393.812 217.594 397.079 203.874C399.039 195.381 399.939 187.214 399.779 179.374C399.612 171.534 397.569 164.674 393.649 158.794C389.729 152.914 383.766 148.177 375.759 144.584C367.759 140.991 356.899 139.194 343.179 139.194C327.172 139.194 311.409 141.807 295.889 147.034C280.376 152.261 266.002 159.857 252.769 169.824C239.542 179.784 228.029 192.197 218.229 207.064C208.429 221.924 201.406 238.827 197.159 257.774C195.526 263.981 194.546 268.961 194.219 272.714C193.892 276.474 193.812 279.577 193.979 282.024C194.139 284.477 194.462 286.357 194.949 287.664C195.442 288.971 195.852 290.277 196.179 291.584C179.519 291.584 167.349 288.234 159.669 281.534C151.996 274.841 150.119 263.164 154.039 246.504C157.959 229.191 166.862 212.694 180.749 197.014C194.629 181.334 211.122 167.531 230.229 155.604C249.342 143.684 270.249 134.214 292.949 127.194C315.656 120.167 337.789 116.654 359.349 116.654C378.296 116.654 394.219 119.347 407.119 124.734C420.026 130.127 430.072 137.234 437.259 146.054C444.446 154.874 448.936 165.164 450.729 176.924C452.529 188.684 451.959 200.934 449.019 213.674C445.426 229.027 438.646 244.464 428.679 259.984C418.719 275.497 406.226 289.544 391.199 302.124C376.172 314.697 358.939 324.904 339.499 332.744C320.066 340.584 299.406 344.504 277.519 344.504L275.069 344.504L212.839 484.154L142.279 484.154L280.949 172.514Z"/>
  </symbol>
  <symbol id="notif-webhook-icon" viewBox="0 0 24 24">
    <path fill="none" stroke="currentColor" stroke-width="2" stroke-linecap="round" stroke-linejoin="round" d="M7 8L3 12l4 4M17 8l4 4-4 4M14 4l-4 16"/>
  </symbol>
  <symbol id="notif-slack-icon" viewBox="0 0 2447.6 2452.5">
    <g clip-rule="evenodd" fill-rule="evenodd">
      <path d="m897.4 0c-135.3.1-244.8 109.9-244.7 245.2-.1 135.3 109.5 245.1 244.8 245.2h244.8v-245.1c.1-135.3-109.5-245.1-244.9-245.3.1 0 .1 0 0 0m0 654h-652.6c-135.3.1-244.9 109.9-244.8 245.2-.2 135.3 109.4 245.1 244.7 245.3h652.7c135.3-.1 244.9-109.9 244.8-245.2.1-135.4-109.5-245.2-244.8-245.3z" fill="#36c5f0"/>
      <path d="m2447.6 899.2c.1-135.3-109.5-245.1-244.8-245.2-135.3.1-244.9 109.9-244.8 245.2v245.3h244.8c135.3-.1 244.9-109.9 244.8-245.3zm-652.7 0v-654c.1-135.2-109.4-245-244.7-245.2-135.3.1-244.9 109.9-244.8 245.2v654c-.2 135.3 109.4 245.1 244.7 245.3 135.3-.1 244.9-109.9 244.8-245.3z" fill="#2eb67d"/>
      <path d="m1550.1 2452.5c135.3-.1 244.9-109.9 244.8-245.2.1-135.3-109.5-245.1-244.8-245.2h-244.8v245.2c-.1 135.2 109.5 245 244.8 245.2zm0-654.1h652.7c135.3-.1 244.9-109.9 244.8-245.2.2-135.3-109.4-245.1-244.7-245.3h-652.7c-135.3.1-244.9 109.9-244.8 245.2-.1 135.4 109.4 245.2 244.7 245.3z" fill="#ecb22e"/>
      <path d="m0 1553.2c-.1 135.3 109.5 245.1 244.8 245.2 135.3-.1 244.9-109.9 244.8-245.2v-245.2h-244.8c-135.3.1-244.9 109.9-244.8 245.2zm652.7 0v654c-.2 135.3 109.4 245.1 244.7 245.3 135.3-.1 244.9-109.9 244.8-245.2v-653.9c.2-135.3-109.4-245.1-244.7-245.3-135.4 0-244.9 109.8-244.8 245.1 0 0 0 .1 0 0" fill="#e01e5a"/>
    </g>
  </symbol>
  <symbol id="notif-gotify-icon" viewBox="0 0 48 48">
    <path fill="none" stroke="currentColor" stroke-linecap="round" stroke-linejoin="round" d="M32.6319,35.4058c-1.59,2.4228-3.29,5.0352-7.0635,6.1748-3.7828,1.13-9.7585.9672-13.4072-.7183C8.503,39.1673,7.1718,35.94,7.8518,33.4405c.67-2.509,3.3422-4.3,4.5488-6.2247,1.1971-1.9345.929-4.003.6129-5.9183a27.9877,27.9877,0,0,1-.6129-5.0947A10.325,10.325,0,0,1,13.43,12.4655"/>
    <path fill="none" stroke="currentColor" stroke-linecap="round" stroke-linejoin="round" d="M14.5553,12.6116c-6.9429-.4788-1.4364-6.7036.9577-1.9153"/>
    <path fill="none" stroke="currentColor" stroke-linecap="round" stroke-linejoin="round" d="M15.1814,10.1307c4.5488-5.2671,21.4-6.7413,23.0758,6.6658"/>
    <path fill="none" stroke="currentColor" stroke-linecap="round" stroke-linejoin="round" d="M19.8224,7.2726c.1844-1.9982,1.2165-2.1541,2.616-.6717"/>
    <path fill="none" stroke="currentColor" stroke-linecap="round" stroke-linejoin="round" d="M38.2572,16.7965a1.214,1.214,0,0,1,1.312,1.0822,1.3446,1.3446,0,0,1-2.6335,0A1.2174,1.2174,0,0,1,38.2572,16.7965Z"/>
    <path fill="none" stroke="currentColor" stroke-linecap="round" stroke-linejoin="round" d="M37.06,18.3575c-5.5069,3.9549,5.3813,4.1232,2.509-.3855"/>
    <path fill="none" stroke="currentColor" stroke-linecap="round" stroke-linejoin="round" d="M28.6807,11.1751a5.7459,5.7459,0,1,1-5.7459,5.7459A5.7443,5.7443,0,0,1,28.6807,11.1751Z"/>
    <path fill="none" stroke="currentColor" stroke-linecap="round" stroke-linejoin="round" d="M30.596,15.724a1.3227,1.3227,0,1,1-1.197,1.3119A1.2566,1.2566,0,0,1,30.596,15.724Z"/>
    <path fill="none" stroke="currentColor" stroke-linecap="round" stroke-linejoin="round" d="M38.4967,21.148v1.7846"/>
    <path fill="none" stroke="currentColor" stroke-linecap="round" stroke-linejoin="round" d="M36.29,11.2939c2.2266-.7383,4.4755,2.8711,3.03,5.9511"/>
    <path fill="none" stroke="currentColor" stroke-linecap="round" stroke-linejoin="round" d="M26.9282,25.4537,40.0672,22.59a1.3982,1.3982,0,0,1,1.665,1.0666l.0013.006,1.7334,7.9485a1.3982,1.3982,0,0,1-1.063,1.6663L29.2553,36.1411a1.3981,1.3981,0,0,1-1.665-1.0665l-.0013-.0061L25.8556,27.12a1.3983,1.3983,0,0,1,1.0666-1.665Z"/>
    <path fill="none" stroke="currentColor" stroke-linecap="round" stroke-linejoin="round" d="M8.8844,31.3775c-5.77-2.4511-1.072-5.0228.8284-1.03"/>
    <path fill="none" stroke="currentColor" stroke-linecap="round" stroke-linejoin="round" d="M4.5,37.9894q3.1124,2.8729,5.0277-.7183"/>
    <path fill="none" stroke="currentColor" stroke-linecap="round" stroke-linejoin="round" d="M30.9815,37.7684c1.6762-.389,2.225.73,1.53,3.3333"/>
    <path fill="none" stroke="currentColor" stroke-linecap="round" stroke-linejoin="round" d="M23.1742,26.4975q1.1972,2.2889,3.8306.1341"/>
    <path fill="none" stroke="currentColor" stroke-linecap="round" stroke-linejoin="round" d="M26.0472,26.9764l9.0977,3.9647,6.2938-7.8819"/>
    <path fill="none" stroke="currentColor" stroke-linecap="round" stroke-linejoin="round" d="M28.4789,36.09l4.74-5.9877"/>
    <path fill="none" stroke="currentColor" stroke-linecap="round" stroke-linejoin="round" d="M36.56,29.1694l6.6911,3.5083"/>
  </symbol>
  <symbol id="notif-ntfy-icon" viewBox="0 0 24 24">
    <path fill="#338574" d="M12.597 13.693v2.156h6.205v-2.156ZM5.183 6.549v2.363l3.591 1.901.023.01-.023.009-3.591 1.901v2.35l.386-.211 5.456-2.969V9.729ZM3.659 2.037C1.915 2.037.42 3.41.42 5.154v.002L.438 18.73 0 21.963l5.956-1.583h14.806c1.744 0 3.238-1.374 3.238-3.118V5.154c0-1.744-1.493-3.116-3.237-3.117h-.001zm0 2.2h17.104c.613.001 1.037.447 1.037.917v12.108c0 .47-.424.916-1.038.916H5.633l-3.026.915.031-.179-.017-13.76c0-.47.424-.917 1.038-.917z"/>
  </symbol>
  <symbol id="notif-telegram-icon" viewBox="0 0 256 256">
    <defs>
      <linearGradient id="tg-a" x1="50%" x2="50%" y1="0%" y2="100%">
        <stop offset="0%" stop-color="#2AABEE"/>
        <stop offset="100%" stop-color="#229ED9"/>
      </linearGradient>
    </defs>
    <path fill="url(#tg-a)" d="M128 0C94.06 0 61.48 13.494 37.5 37.49A128.038 128.038 0 0 0 0 128c0 33.934 13.5 66.514 37.5 90.51C61.48 242.506 94.06 256 128 256s66.52-13.494 90.5-37.49c24-23.996 37.5-56.576 37.5-90.51 0-33.934-13.5-66.514-37.5-90.51C194.52 13.494 161.94 0 128 0Z"/>
    <path fill="#FFF" d="M57.94 126.648c37.32-16.256 62.2-26.974 74.64-32.152 35.56-14.786 42.94-17.354 47.76-17.441 1.06-.017 3.42.245 4.96 1.49 1.28 1.05 1.64 2.47 1.82 3.467.16.996.38 3.266.2 5.038-1.92 20.24-10.26 69.356-14.5 92.026-1.78 9.592-5.32 12.808-8.74 13.122-7.44.684-13.08-4.912-20.28-9.63-11.26-7.386-17.62-11.982-28.56-19.188-12.64-8.328-4.44-12.906 2.76-20.386 1.88-1.958 34.64-31.748 35.26-34.45.08-.338.16-1.598-.6-2.262-.74-.666-1.84-.438-2.64-.258-1.14.256-19.12 12.152-54 35.686-5.1 3.508-9.72 5.218-13.88 5.128-4.56-.098-13.36-2.584-19.9-4.708-8-2.606-14.38-3.984-13.82-8.41.28-2.304 3.46-4.662 9.52-7.072Z"/>
  </symbol>
  <symbol id="notif-pushbullet-icon" viewBox="0 0 24 24">
    <path fill="#4ab367" d="M12 0A12 12 0 0 0 0 12a12 12 0 0 0 12 12 12 12 0 0 0 12-12A12 12 0 0 0 12 0zm0 1.688A10.312 10.312 0 0 1 22.312 12 10.312 10.312 0 0 1 12 22.312 10.312 10.312 0 0 1 1.688 12 10.312 10.312 0 0 1 12 1.688zM7.258 6.92a.659.772 0 0 0-.659.772v8.643a.603.603 0 0 0 .603.603h1.733a.603.603 0 0 0 .603-.603V7.692a.659.772 0 0 0-.658-.772zm6.94.001c-.975.005-1.93.005-2.867.002-.28 0-.474.254-.534.499a1.7 1.7 0 0 0-.043.405c.004 2.854.007 5.677.007 8.47 0 .397.21.643.589.641 1.002-.004 1.967-.003 2.895 0 .058 0 .129.022.176.02.824-.018 1.552-.251 2.182-.698 2.02-1.43 2.554-4.264 1.662-6.47-.574-1.417-1.743-2.573-3.27-2.82a5.027 5.027 0 0 0-.797-.049z"/>
  </symbol>
  <symbol id="notif-email-icon" viewBox="0 0 24 24">
    <path fill="currentColor" d="M20 4H4a2 2 0 00-2 2v12a2 2 0 002 2h16a2 2 0 002-2V6a2 2 0 00-2-2zm0 4l-8 5-8-5V6l8 5 8-5v2z"/>
  </symbol>
  <symbol id="notif-webpush-icon" viewBox="0 0 24 24">
    <path fill="currentColor" d="M12 22a2 2 0 002-2H10a2 2 0 002 2zm6-6V11a6 6 0 00-5-5.91V4a1 1 0 00-2 0v1.09A6 6 0 006 11v5l-2 2v1h16v-1l-2-2z"/>
  </symbol>
</svg>
